<?xml version="1.0" standalone="no"?>
<!DOCTYPE svg PUBLIC "-//W3C//DTD SVG 20010904//EN"
 "http://www.w3.org/TR/2001/REC-SVG-20010904/DTD/svg10.dtd">
<svg version="1.0" xmlns="http://www.w3.org/2000/svg"
 width="1088.000000pt" height="793.000000pt" viewBox="0 0 1088.000000 793.000000"
 preserveAspectRatio="xMidYMid meet">

<g transform="translate(0.000000,793.000000) scale(0.100000,-0.100000)"
fill="#ffffff" stroke="none">
<path d="M7070 7914 c-51 -8 -157 -38 -200 -57 -27 -12 -84 -23 -140 -28 -156
-13 -343 -90 -620 -257 -233 -139 -598 -399 -830 -590 -74 -61 -86 -68 -96
-53 -26 38 -190 344 -273 510 -88 174 -115 211 -155 211 -29 0 -294 -100 -307
-117 -7 -8 -43 -258 -84 -586 -42 -336 -76 -572 -83 -575 -6 -2 -46 -20 -89
-41 -98 -48 -180 -121 -218 -198 -27 -52 -30 -69 -32 -157 l-1 -100 -154 -66
c-423 -184 -764 -351 -899 -440 -195 -127 -278 -277 -225 -404 17 -40 80 -113
105 -121 19 -6 1270 -245 1283 -245 4 0 8 -6 8 -12 0 -7 13 -41 30 -76 118
-249 498 -347 1070 -276 69 9 165 24 214 34 l89 18 70 -24 c114 -39 215 -56
332 -57 188 -1 331 53 456 170 51 48 113 123 124 150 2 4 1693 83 1778 83 99
0 156 23 187 72 18 28 21 45 17 114 -3 71 -9 93 -45 169 -23 48 -64 115 -91
149 -140 175 -454 432 -851 696 -52 35 -97 64 -99 66 -2 1 17 54 42 116 109
274 207 668 276 1113 16 104 18 141 10 223 -19 192 -76 350 -163 448 -95 108
-269 163 -436 138z m207 -149 c109 -32 205 -163 238 -320 31 -152 30 -205 -9
-425 -84 -487 -186 -856 -304 -1099 -39 -81 -43 -95 -29 -102 8 -5 102 -67
209 -138 478 -318 786 -585 868 -755 37 -76 58 -153 45 -165 -6 -5 -417 -28
-915 -50 -498 -23 -932 -44 -965 -47 l-60 -5 -19 -47 c-28 -65 -145 -181 -219
-216 -156 -73 -346 -72 -559 4 l-85 29 -124 -24 c-306 -60 -655 -70 -837 -26
-201 50 -296 132 -327 281 l-11 54 -669 128 c-368 70 -675 130 -682 132 -7 3
-21 21 -30 40 -15 33 -15 38 2 76 22 49 91 115 182 174 179 116 756 381 1403
646 124 51 257 105 296 122 l72 29 4 54 c21 247 515 737 1213 1202 335 223
563 341 723 374 55 12 63 11 81 -5 19 -17 22 -16 93 18 149 71 303 94 415 61z
m-2470 -478 c79 -154 169 -321 249 -454 l18 -31 -119 -124 c-66 -68 -137 -146
-159 -175 l-39 -51 -71 -7 c-39 -3 -104 -11 -144 -16 -41 -6 -75 -9 -78 -7 -2
2 25 228 59 502 l62 498 60 23 c33 13 62 24 65 24 3 1 47 -81 97 -182z m-152
-1004 c-4 -10 -15 -43 -25 -73 l-17 -55 -249 -104 c-137 -57 -258 -104 -269
-105 -18 -1 -20 4 -17 49 7 137 159 242 421 289 42 8 96 15 120 15 37 1 42 -1
36 -16z"/>
<path d="M7072 7555 c-129 -44 -278 -124 -498 -267 -116 -75 -122 -81 -163
-153 -59 -102 -109 -221 -129 -305 l-17 -71 -305 -213 c-351 -245 -746 -509
-904 -603 -170 -101 -455 -228 -1276 -570 -245 -102 -465 -196 -490 -208 -87
-44 -100 -83 -38 -110 44 -18 172 -35 262 -35 67 0 829 -128 854 -144 5 -3 11
-38 14 -78 5 -82 24 -126 76 -181 79 -82 219 -99 617 -78 222 12 331 25 352
43 19 15 102 3 203 -29 76 -24 101 -27 230 -27 144 -1 146 -1 211 31 68 34
118 81 175 164 37 54 86 79 163 86 31 2 377 17 769 33 649 27 717 31 758 49
40 18 44 23 44 56 0 31 -9 46 -57 97 -148 156 -726 581 -894 658 -30 14 -57
29 -61 35 -16 22 -6 55 30 98 78 95 189 437 286 882 67 308 91 490 83 634 -7
117 -20 166 -57 203 -26 25 -35 28 -97 28 -46 0 -92 -9 -141 -25z"/>
<path d="M6351 7419 c-36 -16 -96 -53 -133 -80 -57 -43 -68 -56 -68 -80 0 -64
88 -28 310 129 63 44 68 50 48 56 -48 12 -95 5 -157 -25z"/>
<path d="M2501 7319 c-40 -11 -100 -31 -133 -44 -59 -24 -62 -24 -110 -9 -34
12 -72 15 -131 12 -69 -3 -92 -9 -145 -38 -96 -51 -162 -140 -178 -239 -5 -34
-15 -47 -60 -81 -29 -23 -86 -76 -127 -119 -85 -89 -116 -151 -101 -203 27
-94 169 -100 398 -17 78 28 80 29 134 13 71 -21 180 -15 243 13 96 43 178 142
200 240 12 50 18 59 84 113 119 97 184 177 206 253 11 40 -12 92 -50 111 -41
22 -139 19 -230 -5z m189 -86 c0 -24 -71 -114 -133 -167 -30 -25 -57 -46 -60
-46 -3 0 -10 15 -17 34 -6 18 -26 55 -45 82 -40 56 -43 53 76 88 102 30 179
34 179 9z m-871 -428 c6 -19 27 -56 46 -83 l33 -49 -86 -27 c-118 -36 -190
-44 -198 -23 -3 9 3 31 15 50 22 36 154 167 168 167 5 0 15 -16 22 -35z"/>
<path d="M9167 6995 c-9 -8 -18 -34 -22 -57 -11 -67 -27 -85 -90 -98 -70 -14
-97 -46 -72 -84 11 -16 29 -25 62 -29 71 -10 82 -20 96 -84 15 -71 24 -83 59
-83 35 0 44 12 59 82 7 32 18 61 24 65 7 4 37 12 67 18 42 9 58 17 67 36 19
36 -3 61 -68 77 -64 15 -85 37 -94 95 -11 68 -53 98 -88 62z"/>
<path d="M2843 6865 c-36 -16 -73 -68 -73 -103 0 -38 30 -92 61 -107 80 -42
179 17 179 107 0 36 -37 88 -75 104 -42 17 -51 17 -92 -1z"/>
<path d="M9787 6273 c-2 -4 -7 -25 -11 -45 -8 -42 -16 -50 -66 -58 -31 -5 -35
-9 -35 -34 0 -26 5 -30 45 -40 42 -10 46 -14 55 -54 19 -76 61 -76 80 0 9 40
13 44 53 53 24 6 47 17 52 25 14 22 -7 50 -38 50 -40 0 -60 19 -70 65 -6 33
-12 41 -34 43 -14 2 -28 0 -31 -5z"/>
<path d="M8467 6203 c-2 -5 -7 -25 -11 -45 -7 -38 -29 -58 -63 -58 -11 0 -27
-6 -37 -13 -25 -18 -13 -57 17 -57 41 0 71 -24 82 -65 14 -47 36 -65 59 -46 9
8 16 25 16 40 0 38 12 51 61 65 46 14 60 36 39 61 -7 8 -25 15 -41 15 -31 0
-59 31 -59 65 0 12 -5 26 -12 33 -13 13 -44 16 -51 5z"/>
<path d="M9195 6188 c-2 -7 -9 -30 -15 -50 -10 -33 -17 -39 -58 -50 -39 -12
-47 -18 -47 -38 0 -20 8 -26 47 -38 45 -12 49 -16 61 -60 10 -35 19 -48 35
-50 23 -3 35 15 46 70 5 22 15 29 54 40 39 12 47 18 47 38 0 20 -8 26 -47 38
-39 11 -49 18 -54 40 -11 51 -23 72 -44 72 -11 0 -22 -6 -25 -12z"/>
<path d="M2273 6038 c-5 -7 -15 -32 -22 -55 -11 -39 -15 -43 -51 -49 -78 -13
-81 -59 -5 -83 46 -15 50 -19 60 -61 10 -41 14 -45 40 -45 26 0 30 4 37 39 11
52 21 62 69 70 72 11 65 62 -12 80 -40 10 -45 14 -54 51 -12 49 -22 65 -39 65
-8 0 -18 -6 -23 -12z"/>
<path d="M1297 6019 c-9 -5 -19 -26 -23 -47 -10 -59 -28 -79 -76 -87 -24 -4
-49 -12 -55 -17 -31 -25 -2 -78 42 -78 51 0 73 -19 87 -79 11 -46 17 -57 36
-59 32 -5 49 13 57 58 9 54 25 71 72 77 55 7 80 34 65 68 -8 16 -20 25 -35 25
-13 0 -38 5 -55 11 -31 11 -41 30 -54 103 -4 23 -38 37 -61 25z"/>
<path d="M1740 5568 c-5 -13 -12 -40 -15 -62 -9 -54 -41 -82 -104 -91 -53 -7
-71 -23 -71 -64 0 -25 36 -51 73 -51 65 0 107 -49 107 -127 0 -13 11 -30 25
-39 34 -22 72 -6 81 33 26 117 29 120 103 132 59 9 81 25 81 57 0 32 -23 51
-72 59 -24 4 -51 12 -61 17 -22 11 -47 66 -47 102 0 33 -25 56 -61 56 -21 0
-32 -6 -39 -22z"/>
<path d="M9163 5575 c-13 -9 -23 -31 -28 -61 -8 -59 -38 -89 -95 -98 -55 -9
-70 -21 -70 -56 0 -35 14 -46 69 -54 68 -10 78 -20 92 -83 15 -71 24 -83 59
-83 35 0 47 15 56 70 9 57 39 87 98 95 97 15 97 96 -1 111 -60 9 -88 37 -97
97 -5 31 -14 52 -29 62 -26 18 -28 18 -54 0z"/>
<path d="M40 3220 l0 -170 481 -2 481 -3 -491 -691 -491 -692 0 -106 0 -106
755 0 755 0 0 175 0 175 -501 2 -500 3 500 707 501 708 0 85 0 85 -745 0 -745
0 0 -170z"/>
<path d="M2580 2420 l0 -970 723 2 722 3 3 178 2 177 -545 0 -545 0 0 220 0
220 525 0 525 0 0 170 0 170 -525 0 -525 0 0 225 0 225 545 0 545 0 0 175 0
175 -725 0 -725 0 0 -970z"/>
<path d="M5110 2420 l0 -970 180 0 180 0 2 655 3 655 510 -655 509 -656 111 3
110 3 3 968 2 967 -180 0 -180 0 0 -602 c0 -574 -1 -601 -17 -585 -10 10 -225
280 -478 600 l-461 582 -147 3 -147 3 0 -971z"/>
<path d="M7890 2420 l0 -970 180 0 180 0 0 970 0 970 -180 0 -180 0 0 -970z"/>
<path d="M9280 3225 l0 -165 308 -2 307 -3 3 -803 2 -802 178 2 177 3 3 803 2
802 305 0 305 0 0 165 0 165 -795 0 -795 0 0 -165z"/>
<path d="M5453 1025 c-126 -28 -195 -73 -237 -157 -41 -81 -34 -191 15 -262
50 -73 143 -113 324 -141 175 -27 240 -67 240 -149 0 -88 -68 -137 -201 -144
-114 -6 -180 15 -243 76 -27 26 -50 53 -53 61 -3 11 -21 5 -76 -24 -40 -20
-72 -43 -72 -50 0 -25 78 -122 124 -153 78 -52 142 -67 291 -67 174 0 244 23
325 104 64 65 80 106 80 207 0 71 -22 138 -58 178 -51 57 -157 96 -327 121
-142 22 -191 43 -211 90 -21 52 -5 98 49 133 37 25 49 27 141 27 110 0 149
-13 210 -70 l29 -27 69 33 c37 18 68 34 68 36 0 16 -36 66 -67 93 -96 85 -264
119 -420 85z"/>
<path d="M4117 1009 c-160 -38 -296 -177 -342 -350 -20 -73 -19 -231 1 -300
52 -177 180 -298 353 -335 290 -61 537 81 606 351 19 74 19 213 0 284 -46 175
-182 313 -346 350 -53 13 -219 12 -272 0z m289 -182 c106 -54 166 -163 167
-302 2 -156 -54 -259 -168 -316 -58 -28 -75 -32 -150 -32 -75 0 -92 4 -149 32
-74 36 -118 85 -147 162 -66 172 -3 380 135 451 66 34 86 38 176 34 68 -2 95
-8 136 -29z"/>
<path d="M9224 1001 c-212 -61 -344 -246 -344 -482 0 -160 43 -274 139 -369
65 -66 138 -104 236 -125 171 -36 344 0 468 98 l39 30 -58 58 c-32 33 -62 59
-67 59 -5 0 -23 -11 -42 -25 -127 -98 -356 -81 -456 32 -58 67 -83 137 -83
233 0 108 27 181 90 245 70 72 119 90 244 90 91 0 111 -3 150 -24 25 -13 54
-32 65 -42 21 -18 22 -18 79 40 32 33 56 64 52 69 -15 25 -134 94 -193 112
-83 26 -231 26 -319 1z"/>
<path d="M2580 520 l0 -490 90 0 90 0 0 165 0 165 89 0 90 0 143 -165 143
-165 108 0 c59 0 107 3 107 6 0 3 -65 79 -145 169 -80 90 -145 166 -145 168 0
3 22 13 49 22 67 22 133 82 162 147 33 75 34 201 1 273 -30 66 -93 128 -156
156 -43 19 -77 24 -226 30 -96 4 -226 8 -287 8 l-113 1 0 -490z m556 294 c47
-35 67 -70 72 -126 3 -44 0 -59 -20 -87 -49 -72 -60 -76 -254 -79 l-174 -3 0
161 0 162 174 -4 c158 -3 177 -5 202 -24z"/>
<path d="M6493 1003 l-93 -4 0 -484 0 -485 90 0 90 0 0 144 0 144 188 4 c218
5 254 15 332 85 188 169 133 485 -99 574 -49 19 -78 22 -236 24 -99 1 -222 0
-272 -2z m452 -189 c106 -55 125 -212 34 -289 -44 -36 -67 -40 -239 -40 l-155
0 -3 165 c-1 90 0 171 3 178 4 11 35 13 163 11 135 -4 163 -7 197 -25z"/>
<path d="M409 933 c-256 -569 -399 -890 -399 -896 0 -4 42 -7 94 -7 l93 0 44
95 43 95 256 0 257 0 40 -93 40 -92 97 -3 c53 -1 96 1 96 5 0 4 -96 222 -214
483 l-213 475 -102 3 -102 3 -30 -68z m224 -336 c48 -111 87 -205 87 -209 0
-5 -81 -8 -180 -8 -99 0 -180 3 -180 8 0 12 175 412 180 412 3 0 44 -91 93
-203z"/>
<path d="M1430 515 l0 -485 360 0 360 0 0 90 0 90 -275 0 -276 0 3 113 3 112
263 3 262 2 0 80 0 80 -265 0 -265 0 0 115 0 115 275 0 275 0 0 85 0 85 -360
0 -360 0 0 -485z"/>
<path d="M7956 992 c-12 -20 -426 -946 -426 -954 0 -4 42 -8 94 -8 l93 0 43
95 43 95 256 0 256 0 41 -92 40 -93 98 -3 c90 -3 97 -1 92 15 -3 10 -100 227
-215 483 l-209 465 -100 3 c-55 1 -103 -1 -106 -6z m193 -389 c44 -101 82
-192 86 -203 6 -20 2 -20 -175 -20 -169 0 -182 1 -178 18 14 48 174 400 180
394 4 -4 43 -89 87 -189z"/>
<path d="M10140 515 l0 -485 365 0 365 0 0 90 0 90 -275 0 -276 0 3 113 3 112
263 3 262 2 0 80 0 80 -265 0 -265 0 0 115 0 115 275 0 275 0 0 85 0 85 -365
0 -365 0 0 -485z"/>
</g>
</svg>
