<?xml version="1.0" standalone="no"?>
<!DOCTYPE svg PUBLIC "-//W3C//DTD SVG 20010904//EN"
 "http://www.w3.org/TR/2001/REC-SVG-20010904/DTD/svg10.dtd">
<svg version="1.0" xmlns="http://www.w3.org/2000/svg"
 width="3113.000000pt" height="552.000000pt" viewBox="0 0 3113.000000 552.000000"
 preserveAspectRatio="xMidYMid meet">

<g transform="translate(0.000000,552.000000) scale(0.100000,-0.100000)"
fill="#ffffff" stroke="none">
<path d="M8860 5515 c-8 -2 -49 -9 -90 -15 -83 -14 -204 -49 -294 -87 -45 -19
-80 -25 -160 -28 -62 -2 -131 -11 -179 -24 -329 -90 -847 -386 -1485 -850
-183 -133 -565 -433 -591 -464 -7 -10 -19 -17 -25 -17 -20 0 -255 429 -465
848 -107 213 -129 242 -192 242 -40 0 -417 -144 -444 -170 -14 -13 -27 -30
-30 -39 -2 -9 -50 -378 -105 -821 -55 -443 -102 -819 -105 -836 -4 -26 -12
-33 -46 -43 -66 -20 -201 -94 -267 -146 -166 -130 -243 -326 -208 -531 l7 -41
-123 -53 c-528 -226 -1054 -474 -1303 -613 -256 -143 -404 -277 -473 -424 -22
-47 -26 -73 -27 -138 0 -68 4 -89 29 -138 31 -64 108 -147 152 -165 16 -6 445
-90 954 -187 509 -97 932 -178 940 -180 8 -3 23 -32 34 -66 49 -159 193 -303
386 -386 192 -83 403 -117 725 -117 289 0 470 18 812 80 l142 25 108 -35 c390
-126 725 -111 1000 45 93 53 247 197 305 285 41 61 43 63 92 68 67 7 2423 117
2591 121 72 1 143 8 160 14 49 20 94 59 118 104 32 61 31 195 -2 292 -32 96
-101 226 -163 310 -71 97 -317 338 -473 466 -239 196 -625 475 -882 638 l-81
52 38 89 c174 399 342 1063 444 1748 24 157 25 184 16 283 -28 292 -95 497
-214 656 -82 109 -208 191 -351 228 -56 15 -242 29 -275 20z m226 -219 c171
-45 304 -197 363 -416 28 -102 51 -259 51 -351 0 -135 -103 -699 -199 -1084
-98 -392 -185 -653 -296 -884 -36 -73 -65 -137 -65 -141 0 -4 35 -30 78 -56
525 -325 1095 -759 1349 -1028 140 -147 218 -279 252 -423 18 -72 9 -93 -37
-93 -54 0 -2653 -119 -2748 -126 l-82 -6 -35 -71 c-74 -148 -178 -249 -332
-322 -103 -49 -155 -63 -274 -75 -159 -17 -397 23 -593 98 -74 29 -78 29 -135
16 -100 -23 -332 -62 -483 -80 -210 -26 -655 -26 -795 0 -351 64 -530 200
-570 433 -7 41 -15 76 -17 78 -2 2 -431 85 -953 185 -523 99 -974 185 -1003
191 -44 9 -56 17 -77 47 -70 102 11 229 241 381 293 194 1332 666 2423 1103
246 98 231 88 225 146 -15 128 122 364 376 647 289 323 816 753 1413 1153 501
337 912 544 1122 567 53 6 62 5 79 -14 25 -28 36 -27 99 9 68 38 170 76 282
106 105 27 260 32 341 10z m-3666 -653 c138 -272 298 -565 371 -682 33 -51 59
-94 59 -95 0 0 -65 -67 -144 -147 -78 -81 -185 -199 -236 -262 l-93 -116 -76
-6 c-104 -9 -322 -35 -345 -42 -15 -4 -17 -1 -12 24 3 15 44 341 91 723 47
382 88 706 93 719 5 19 25 31 92 57 47 17 87 32 90 33 3 0 52 -92 110 -206z
m-186 -1540 c-4 -10 -22 -60 -38 -110 l-31 -92 -110 -46 c-60 -24 -236 -97
-390 -160 -154 -63 -284 -115 -289 -115 -5 0 -6 33 -4 73 9 142 91 244 264
328 137 67 411 135 563 138 38 1 42 -1 35 -16z"/>
<path d="M8925 5009 c-211 -49 -523 -206 -883 -446 -152 -101 -150 -99 -240
-258 -73 -130 -131 -272 -161 -397 l-27 -109 -179 -127 c-705 -500 -1413 -973
-1710 -1141 -206 -116 -952 -442 -2010 -878 -220 -90 -436 -181 -480 -202
-116 -55 -164 -106 -137 -147 28 -43 163 -70 413 -85 171 -10 256 -22 719
-105 289 -51 539 -97 555 -102 l30 -8 6 -100 c8 -126 34 -196 99 -267 55 -61
127 -100 227 -123 59 -14 122 -15 458 -11 461 7 688 25 760 63 52 27 141 15
325 -41 248 -76 481 -70 660 18 76 37 174 129 215 202 41 72 70 100 133 128
71 31 17 28 1222 77 531 21 994 41 1031 44 190 16 256 88 178 196 -68 94 -271
268 -614 525 -410 307 -711 504 -827 539 -9 3 -24 16 -33 30 -24 36 -12 76 41
135 57 63 107 171 182 391 112 330 172 560 287 1106 56 264 76 421 82 634 6
222 -7 312 -54 389 -38 60 -81 81 -163 80 -36 -1 -83 -5 -105 -10z"/>
<path d="M7810 4807 c-79 -27 -167 -77 -277 -160 l-83 -62 0 -47 0 -47 53 6
c39 4 74 19 141 60 106 64 356 235 356 244 0 6 -92 29 -113 29 -7 0 -41 -11
-77 -23z"/>
<path d="M15080 4770 l0 -250 706 0 c561 0 705 -3 701 -12 -2 -7 -329 -470
-726 -1028 l-721 -1015 0 -157 0 -158 1120 0 1120 0 0 255 0 255 -745 2 -746
3 746 1053 745 1053 0 125 0 124 -1100 0 -1100 0 0 -250z"/>
<path d="M18832 3588 l3 -1433 1073 -3 1072 -2 0 265 0 265 -805 0 -805 0 0
330 0 330 775 0 775 0 0 245 0 245 -775 0 -775 0 0 335 0 335 805 0 805 0 0
260 0 260 -1075 0 -1075 0 2 -1432z"/>
<path d="M22580 3585 l0 -1435 270 0 270 0 2 968 3 968 753 -968 754 -968 164
0 164 0 0 1435 0 1435 -265 0 -265 0 0 -886 c0 -514 -4 -884 -9 -882 -5 2
-323 400 -706 886 l-698 882 -218 0 -219 0 0 -1435z"/>
<path d="M26700 3585 l0 -1435 265 0 265 0 0 1435 0 1435 -265 0 -265 0 0
-1435z"/>
<path d="M28760 4775 l0 -245 455 0 455 0 0 -1190 0 -1190 270 0 270 0 0 1190
0 1190 455 0 455 0 0 245 0 245 -1180 0 -1180 0 0 -245z"/>
<path d="M2120 4648 c-74 -16 -179 -48 -279 -85 l-93 -35 -70 23 c-191 61
-403 6 -542 -141 -71 -76 -109 -147 -132 -249 -16 -69 -16 -69 -94 -129 -171
-133 -302 -286 -330 -386 -37 -133 64 -219 240 -202 90 8 232 45 361 94 l106
40 69 -24 c82 -28 208 -32 293 -9 190 50 344 215 382 407 11 56 13 59 98 127
122 97 260 244 296 316 23 46 30 74 30 117 0 51 -4 61 -33 91 -18 19 -50 39
-71 46 -45 13 -167 13 -231 -1z m196 -142 c8 -20 -9 -50 -72 -126 -46 -57
-189 -190 -213 -198 -4 -1 -13 17 -20 40 -15 52 -54 121 -93 166 -16 18 -26
37 -23 42 6 10 136 54 220 74 82 20 194 21 201 2z m-1306 -600 c0 -24 68 -150
104 -192 l36 -42 -94 -31 c-163 -54 -299 -75 -336 -51 -12 8 -12 13 2 43 24
51 108 147 193 221 77 67 95 77 95 52z"/>
<path d="M11935 4161 c-33 -14 -43 -33 -54 -98 -15 -94 -32 -120 -93 -138 -28
-8 -65 -15 -80 -15 -38 0 -78 -40 -78 -78 0 -49 27 -71 100 -83 113 -18 135
-42 155 -172 8 -50 36 -77 80 -77 46 0 71 29 79 92 4 27 14 67 23 89 13 34 22
41 66 54 28 8 61 15 73 15 53 0 94 40 94 91 0 30 -44 69 -78 69 -50 0 -131 30
-147 53 -8 13 -21 56 -28 96 -8 40 -20 79 -28 86 -19 18 -60 26 -84 16z"/>
<path d="M2525 3947 c-113 -64 -113 -240 0 -304 116 -66 265 19 265 151 0 134
-148 219 -265 153z"/>
<path d="M12843 3082 c-7 -4 -17 -33 -23 -63 -10 -55 -36 -89 -69 -89 -45 0
-91 -22 -97 -46 -9 -35 18 -60 71 -69 60 -8 83 -31 94 -87 10 -57 25 -78 57
-78 30 0 54 25 54 56 0 14 6 40 14 59 15 34 21 37 118 59 31 7 46 43 30 72 -6
10 -36 24 -73 33 -69 17 -66 13 -98 131 -5 19 -14 26 -36 28 -17 1 -36 -1 -42
-6z"/>
<path d="M10888 2979 c-10 -5 -20 -26 -23 -47 -15 -86 -31 -102 -118 -117 -67
-11 -74 -87 -9 -100 86 -18 100 -25 111 -57 6 -17 11 -41 11 -52 0 -32 28 -66
54 -66 32 0 52 27 59 79 7 56 30 78 90 90 56 10 77 25 77 56 0 27 -15 41 -55
50 -78 17 -93 26 -104 57 -6 17 -11 42 -11 54 0 26 -32 64 -52 64 -7 0 -21 -5
-30 -11z"/>
<path d="M11956 2948 c-9 -12 -16 -32 -16 -44 0 -11 -5 -35 -11 -52 -11 -32
-25 -39 -112 -57 -64 -13 -56 -89 11 -100 88 -15 95 -23 117 -128 12 -58 88
-57 100 1 22 104 25 108 120 128 30 7 42 15 49 36 14 39 -12 64 -71 71 -57 6
-80 29 -92 90 -4 26 -14 54 -21 62 -18 22 -57 18 -74 -7z"/>
<path d="M1704 2735 c-14 -9 -25 -34 -33 -75 -11 -56 -15 -63 -46 -76 -19 -8
-45 -14 -57 -14 -37 0 -68 -27 -68 -60 0 -33 16 -44 77 -55 63 -10 83 -31 97
-100 10 -51 16 -61 39 -70 47 -16 62 1 81 95 9 45 30 62 92 74 46 9 61 17 71
36 10 20 10 29 -1 45 -13 20 -21 23 -103 45 -44 11 -47 16 -67 110 -11 50 -47
70 -82 45z"/>
<path d="M240 2690 c-11 -11 -20 -29 -20 -41 0 -45 -24 -111 -45 -125 -12 -8
-48 -19 -80 -24 -70 -11 -85 -23 -85 -66 0 -41 20 -61 68 -69 57 -10 99 -25
111 -39 7 -8 18 -45 26 -82 15 -72 32 -94 72 -94 35 0 59 32 68 86 14 95 27
106 150 131 85 18 85 108 0 126 -126 27 -138 37 -151 136 -10 76 -68 107 -114
61z"/>
<path d="M921 2047 c-14 -16 -25 -46 -32 -87 -5 -34 -16 -75 -24 -90 -16 -31
-65 -54 -140 -65 -65 -9 -95 -36 -95 -85 0 -51 24 -69 111 -86 114 -22 132
-41 149 -159 10 -67 41 -105 86 -105 35 0 84 51 84 87 0 52 29 132 54 148 13
9 56 22 95 29 103 20 139 62 106 125 -16 32 -22 35 -107 50 -110 20 -127 39
-148 167 -6 40 -16 65 -31 77 -31 25 -81 22 -108 -6z"/>
<path d="M11900 2042 c-17 -14 -25 -35 -32 -82 -15 -111 -41 -135 -171 -155
-50 -8 -77 -36 -77 -80 0 -48 26 -71 91 -80 114 -15 140 -41 158 -156 12 -72
34 -99 83 -99 45 0 74 36 82 104 7 66 27 111 56 126 11 6 46 15 77 21 88 15
94 18 109 54 15 36 8 71 -18 92 -7 7 -41 16 -73 22 -117 19 -139 41 -152 154
-10 86 -77 125 -133 79z"/>
<path d="M23128 1530 c-141 -26 -237 -69 -315 -142 -76 -72 -106 -140 -111
-248 -13 -264 136 -392 523 -449 176 -27 259 -51 309 -92 86 -72 89 -185 6
-266 -99 -96 -358 -110 -519 -29 -57 30 -133 102 -151 145 l-13 31 -106 -56
c-58 -31 -108 -58 -111 -61 -14 -13 68 -138 125 -192 71 -66 140 -102 253
-133 112 -30 364 -31 473 0 102 28 191 74 250 129 162 151 167 450 10 596 -91
85 -196 123 -447 162 -181 27 -260 52 -304 96 -79 79 -31 211 94 258 160 59
366 20 478 -92 l38 -37 103 51 c56 28 103 53 105 54 8 7 -53 91 -95 131 -51
50 -160 106 -248 129 -71 19 -280 28 -347 15z"/>
<path d="M21165 1506 c-161 -31 -264 -85 -375 -196 -312 -311 -278 -911 65
-1155 136 -98 266 -136 460 -136 152 0 247 20 365 77 109 53 230 178 287 294
99 202 115 440 44 648 -40 116 -84 185 -177 279 -132 132 -273 189 -489 198
-70 3 -135 0 -180 -9z m230 -236 c238 -34 395 -234 395 -505 0 -305 -189 -505
-475 -505 -286 0 -475 201 -475 505 0 298 183 499 465 514 11 0 52 -4 90 -9z"/>
<path d="M28785 1509 c-403 -59 -665 -416 -616 -840 50 -441 377 -690 851
-647 156 14 304 75 412 169 l43 38 -91 91 -91 92 -49 -38 c-93 -71 -195 -104
-324 -104 -299 0 -490 191 -490 490 0 151 42 262 138 362 97 102 219 144 389
136 114 -6 182 -29 267 -88 l56 -39 87 84 88 85 -43 38 c-161 143 -390 205
-627 171z"/>
<path d="M15345 779 c-176 -392 -322 -716 -323 -721 -2 -5 62 -7 142 -6 l147
3 59 130 59 130 382 0 382 0 60 -132 60 -133 143 0 c79 0 144 2 144 5 0 2
-144 325 -319 717 l-320 713 -148 3 -149 2 -319 -711z m732 -206 c-2 -2 -124
-2 -270 -1 l-266 3 120 275 c66 151 127 291 135 310 l15 35 135 -309 c74 -170
133 -310 131 -313z"/>
<path d="M17120 770 l0 -720 540 0 540 0 0 130 0 130 -405 0 -405 0 0 165 0
165 390 0 390 0 0 125 0 125 -390 0 -390 0 0 170 0 170 405 0 405 0 0 130 0
130 -540 0 -540 0 0 -720z"/>
<path d="M18830 770 l0 -720 135 0 135 0 0 240 0 240 134 0 133 0 209 -240
209 -240 163 0 c89 0 162 3 162 6 0 3 -82 98 -182 211 -101 114 -200 225 -220
248 l-37 42 66 22 c171 56 266 174 293 362 36 256 -122 480 -378 535 -51 10
-158 14 -444 14 l-378 0 0 -720z m810 446 c85 -45 124 -109 125 -206 0 -119
-66 -206 -176 -229 -27 -6 -149 -11 -269 -11 l-220 0 0 236 0 235 253 -3 c223
-3 256 -5 287 -22z"/>
<path d="M24500 770 l0 -720 130 0 130 0 0 209 0 209 263 5 c210 3 273 8 317
22 226 71 360 251 360 484 0 153 -46 270 -144 366 -34 33 -87 72 -118 87 -109
54 -150 58 -560 58 l-378 0 0 -720z m785 447 c162 -72 206 -297 81 -421 -69
-69 -102 -76 -373 -76 l-233 0 0 253 c0 140 3 257 7 261 5 4 114 6 243 4 199
-3 241 -6 275 -21z"/>
<path d="M26491 788 c-173 -387 -318 -711 -323 -721 -8 -16 0 -17 137 -15
l147 3 61 133 60 132 381 0 381 0 59 -135 59 -135 143 0 c79 0 144 3 144 8 0
4 -144 327 -319 717 l-318 710 -149 3 -149 2 -314 -702z m599 94 c72 -167 130
-306 127 -308 -2 -2 -123 -3 -269 -2 l-266 3 127 290 c70 160 130 299 134 309
4 10 9 17 11 15 2 -2 63 -140 136 -307z"/>
<path d="M30040 770 l0 -720 540 0 540 0 0 130 0 130 -405 0 -405 0 0 165 0
165 390 0 390 0 0 125 0 125 -390 0 -390 0 0 170 0 170 405 0 405 0 0 130 0
130 -540 0 -540 0 0 -720z"/>
</g>
</svg>
